<svg xmlns="http://www.w3.org/2000/svg" width="2048" height="2048" viewBox="0 0 2048 2048" version="1.1"><path d="M 838.902 934.955 C 821.278 938.673, 802.463 948.312, 789.483 960.272 C 744.508 1001.714, 742.665 1071.041, 785.410 1113.544 C 816.657 1144.614, 861.888 1153.476, 902.278 1136.442 C 935.212 1122.552, 959.864 1091.446, 965.506 1056.663 C 971.110 1022.110, 960.073 987.561, 935.861 963.864 C 920.048 948.387, 902.454 939.032, 880.792 934.583 C 870.242 932.416, 850.087 932.595, 838.902 934.955" stroke="none" fill="#3a2c4f" fill-rule="evenodd"/><path d="M 297.923 0.389 C 297.691 0.610, 292.550 1.308, 286.500 1.941 C 258.319 4.886, 221.359 15.009, 191.500 27.961 C 186.790 30.004, 164.772 41.618, 160.567 44.277 C 159.504 44.950, 154.779 47.921, 150.067 50.881 C 130.008 63.479, 115.187 75.592, 94.981 95.902 C 60.139 130.922, 37.285 166.556, 20.099 212.654 C 10.275 239.004, 5.519 259.381, 2.047 290 L -0.051 308.500 0.234 1024.500 L 0.519 1740.500 3.171 1757 C 13.661 1822.277, 35.332 1872.529, 73.678 1920.500 C 84.192 1933.653, 105.042 1955.274, 117.500 1965.943 C 168.154 2009.325, 230.089 2037.310, 292.500 2045.017 C 297.450 2045.629, 304.237 2046.550, 307.582 2047.064 C 316.649 2048.459, 1726.562 2048.336, 1739.500 2046.940 C 1757.174 2045.031, 1781.143 2040.899, 1794.500 2037.458 C 1853.602 2022.231, 1908.145 1990.395, 1951.590 1945.768 C 1983.023 1913.479, 2005.073 1880.304, 2022.305 1839.373 C 2035.223 1808.691, 2045.032 1768.079, 2046.719 1738.290 C 2047.037 1732.667, 2047.681 1728.303, 2048.149 1728.592 C 2048.617 1728.881, 2048.968 1408.129, 2048.930 1015.809 C 2048.890 617.093, 2048.480 303.382, 2048 304.500 C 2047.367 305.972, 2047.122 305.128, 2047.070 301.301 C 2046.978 294.447, 2044.470 275.532, 2041.978 262.887 C 2022.810 165.639, 1961.479 83.075, 1874 36.752 C 1842.543 20.095, 1803.674 7.784, 1767.500 3.020 C 1762.550 2.368, 1757.375 1.540, 1756 1.181 C 1753.358 0.489, 298.649 -0.301, 297.923 0.389 M 298.500 56.122 C 277.093 58.168, 252.018 63.915, 231.360 71.510 C 207.597 80.247, 175.669 98.301, 156.596 113.787 C 146.453 122.022, 127.992 140.057, 119.014 150.500 C 84.916 190.164, 63.098 239.292, 55.285 294 C 53.585 305.905, 53.500 340.468, 53.500 1020 C 53.500 1701.727, 53.580 1734.034, 55.298 1745.500 C 60.230 1778.405, 70.920 1812.068, 84.796 1838.390 C 103.749 1874.343, 132.592 1908.379, 163.989 1931.844 C 204.917 1962.432, 245.666 1979.267, 298 1987.210 C 304.881 1988.254, 443.449 1988.500, 1025.500 1988.500 L 1744.500 1988.500 1757.500 1986.211 C 1786.811 1981.051, 1809.884 1973.939, 1832.500 1963.093 C 1853.891 1952.834, 1872.376 1941.389, 1890.500 1927.181 C 1900.277 1919.517, 1927.275 1892.199, 1935.152 1882 C 1965.610 1842.563, 1984.293 1798.981, 1992.168 1749 L 1994.453 1734.500 1994.776 1028.500 C 1995.006 526.320, 1994.785 318.747, 1994.012 309.500 C 1988.292 241.072, 1961.130 181.545, 1914.043 134.245 C 1872.280 92.294, 1823.109 67.590, 1760.804 57.257 C 1751.158 55.657, 1704.424 55.539, 1029 55.405 C 632.175 55.327, 303.450 55.649, 298.500 56.122 M 307 84.074 C 248.464 88.068, 193.319 113.884, 152 156.636 C 132.063 177.265, 119.169 195.535, 106.931 220.500 C 94.843 245.157, 87.723 268.495, 83.284 298 C 81.660 308.801, 81.535 351.846, 81.234 1006.500 C 81.014 1487.517, 81.241 1708.717, 81.969 1720.337 C 83.249 1740.764, 85.084 1753.504, 89.124 1770 C 110.317 1856.553, 177.949 1926.492, 264.500 1951.360 C 278.887 1955.493, 296.861 1958.600, 314.395 1959.983 C 332.300 1961.395, 1718.869 1961.373, 1735.500 1959.960 C 1817.259 1953.013, 1888.678 1908.494, 1931.221 1837.956 C 1948.205 1809.796, 1959.462 1776.868, 1964.709 1740 C 1966.401 1728.112, 1966.488 1692.849, 1966.494 1020 C 1966.500 346.209, 1966.415 311.904, 1964.715 300 C 1956.141 239.958, 1931.318 190.381, 1889.845 150.465 C 1848.715 110.879, 1797.791 88.072, 1741.500 84.024 C 1724.697 82.816, 324.725 82.865, 307 84.074 M 0.497 1017 C 0.497 1409.425, 0.611 1569.963, 0.750 1373.750 C 0.889 1177.538, 0.889 856.463, 0.750 660.250 C 0.611 464.038, 0.497 624.575, 0.497 1017 M 1461 441.576 C 1433.905 448.692, 1414 473.743, 1414 500.726 C 1414 509.040, 1416.789 520.796, 1420.613 528.602 C 1429.048 545.821, 1447.833 559.470, 1466.786 562.150 C 1496.423 566.341, 1524.628 547.472, 1533.608 517.448 C 1536.315 508.397, 1536.106 493.499, 1533.139 484.012 C 1530.252 474.780, 1528.408 471.126, 1522.863 463.656 C 1515.249 453.399, 1500.724 444.109, 1488.122 441.438 C 1479.718 439.657, 1468.082 439.716, 1461 441.576 M 1667.202 442.022 C 1656.128 444.923, 1648.543 449.429, 1639.486 458.486 C 1626.326 471.645, 1621.632 482.940, 1621.608 501.500 C 1621.585 518.961, 1626.648 531.807, 1638.309 543.871 C 1649.684 555.641, 1662.847 561.885, 1678 562.701 C 1696.345 563.689, 1711.159 557.905, 1724.532 544.532 C 1737.924 531.140, 1743.708 516.308, 1742.679 498 C 1741.761 481.679, 1736.565 470.302, 1724.615 458.453 C 1708.244 442.219, 1688.269 436.503, 1667.202 442.022 M 1592.591 633.526 C 1585.396 636.249, 1578.889 642.185, 1573.708 650.750 L 1570.533 656 1305.266 656 L 1040 656 1040 675.550 C 1040 690.435, 1039.663 695.744, 1038.589 697.800 C 1036.472 701.853, 1031.773 705.918, 1027.931 707.020 C 1023.241 708.365, 938.647 708.307, 933.781 706.956 C 928.807 705.574, 924.120 701.473, 921.880 696.541 C 920.321 693.110, 920.041 689.801, 920.022 674.627 L 920 656.754 893.250 657.300 C 865.846 657.860, 825.765 660.182, 811.500 662.037 C 768.275 667.656, 725.492 680.709, 688.398 699.596 C 637.317 725.605, 598.167 757.102, 560.493 802.500 C 528.130 841.497, 500.729 896.142, 488.976 945.125 L 486.667 954.750 479.583 950.003 C 464.372 939.810, 450.961 934.637, 431.561 931.479 C 429.394 931.127, 422.155 930.851, 415.474 930.867 C 385.909 930.937, 361.009 940.707, 340.163 960.417 C 318.666 980.742, 307.515 1005.194, 306.274 1034.727 C 305.631 1050.028, 306.785 1059.013, 311.190 1073 C 319.873 1100.575, 340.047 1123.765, 366.866 1136.999 C 391.746 1149.277, 422.562 1151.465, 450.546 1142.943 C 459.418 1140.241, 473.701 1133.101, 481.818 1127.310 C 485.293 1124.831, 488.279 1122.959, 488.455 1123.151 C 488.631 1123.343, 490.231 1128.675, 492.012 1135 C 509.262 1196.272, 544.122 1253.918, 592.102 1300.511 C 654.771 1361.368, 733.189 1398.094, 823 1408.647 C 840.711 1410.728, 881.167 1410.979, 898 1409.112 C 963.562 1401.840, 1020.669 1380.826, 1076 1343.612 C 1096.966 1329.511, 1112.836 1316.265, 1133.579 1295.551 C 1159.014 1270.153, 1174.262 1250.732, 1192.502 1220.500 C 1221.136 1173.042, 1237.704 1121.005, 1242.967 1062 C 1245.662 1031.793, 1242.786 992.557, 1235.364 958.260 C 1234.231 953.028, 1233.931 949.693, 1234.540 949.124 C 1235.068 948.631, 1247.875 945.222, 1263 941.549 C 1278.125 937.875, 1304.900 931.317, 1322.500 926.976 C 1351.796 919.750, 1415.462 904.193, 1457.500 893.989 C 1466.850 891.719, 1494.750 884.903, 1519.500 878.843 C 1544.250 872.782, 1568.315 866.986, 1572.977 865.961 L 1581.455 864.099 1587.956 867.299 C 1593.899 870.225, 1595.276 870.499, 1603.979 870.489 C 1616.064 870.475, 1621.582 868.219, 1629.267 860.152 C 1639.204 849.722, 1638.500 858.078, 1638.500 750.500 L 1638.500 656.500 1635.720 650.839 C 1632.382 644.042, 1626.726 638.696, 1619.120 635.151 C 1612.215 631.933, 1598.946 631.120, 1592.591 633.526 M 1758.500 642.012 C 1744.652 643.917, 1732.474 650.496, 1721.829 661.825 C 1714.160 669.985, 1710.593 676.362, 1707.978 686.585 C 1704.250 701.164, 1706.198 718.086, 1713.093 731.024 C 1720.029 744.037, 1735.488 756.919, 1749.325 761.216 C 1759.384 764.340, 1774.779 764.258, 1784 761.030 C 1802.499 754.555, 1813.436 744.932, 1822.369 727.269 C 1833.529 705.202, 1828.041 677.883, 1808.539 658.429 C 1799.742 649.653, 1793.912 646.289, 1783 643.693 C 1774.213 641.602, 1765.717 641.019, 1758.500 642.012 M 403.168 979.466 C 373.457 986.230, 352.395 1013.418, 354.337 1042.500 C 356.009 1067.549, 370.931 1088.041, 393.753 1096.632 C 422.746 1107.544, 456.377 1095.015, 470.331 1068.102 C 476.205 1056.771, 477.415 1051.790, 477.398 1039 C 477.384 1028.872, 477.053 1026.641, 474.622 1020.298 C 465.113 995.487, 443.754 979.524, 418.592 978.423 C 412.857 978.172, 407.162 978.557, 403.168 979.466" stroke="none" fill="#f5f0e8" fill-rule="evenodd"/><path d="M 298.500 56.122 C 277.093 58.168, 252.018 63.915, 231.360 71.510 C 207.597 80.247, 175.669 98.301, 156.596 113.787 C 146.453 122.022, 127.992 140.057, 119.014 150.500 C 84.916 190.164, 63.098 239.292, 55.285 294 C 53.585 305.905, 53.500 340.468, 53.500 1020 C 53.500 1701.727, 53.580 1734.034, 55.298 1745.500 C 60.230 1778.405, 70.920 1812.068, 84.796 1838.390 C 103.749 1874.343, 132.592 1908.379, 163.989 1931.844 C 204.917 1962.432, 245.666 1979.267, 298 1987.210 C 304.881 1988.254, 443.449 1988.500, 1025.500 1988.500 L 1744.500 1988.500 1757.500 1986.211 C 1786.811 1981.051, 1809.884 1973.939, 1832.500 1963.093 C 1853.891 1952.834, 1872.376 1941.389, 1890.500 1927.181 C 1900.277 1919.517, 1927.275 1892.199, 1935.152 1882 C 1965.610 1842.563, 1984.293 1798.981, 1992.168 1749 L 1994.453 1734.500 1994.776 1028.500 C 1995.006 526.320, 1994.785 318.747, 1994.012 309.500 C 1988.292 241.072, 1961.130 181.545, 1914.043 134.245 C 1872.280 92.294, 1823.109 67.590, 1760.804 57.257 C 1751.158 55.657, 1704.424 55.539, 1029 55.405 C 632.175 55.327, 303.450 55.649, 298.500 56.122 M 307 84.074 C 248.464 88.068, 193.319 113.884, 152 156.636 C 132.063 177.265, 119.169 195.535, 106.931 220.500 C 94.843 245.157, 87.723 268.495, 83.284 298 C 81.660 308.801, 81.535 351.846, 81.234 1006.500 C 81.014 1487.517, 81.241 1708.717, 81.969 1720.337 C 83.249 1740.764, 85.084 1753.504, 89.124 1770 C 110.317 1856.553, 177.949 1926.492, 264.500 1951.360 C 278.887 1955.493, 296.861 1958.600, 314.395 1959.983 C 332.300 1961.395, 1718.869 1961.373, 1735.500 1959.960 C 1817.259 1953.013, 1888.678 1908.494, 1931.221 1837.956 C 1948.205 1809.796, 1959.462 1776.868, 1964.709 1740 C 1966.401 1728.112, 1966.488 1692.849, 1966.494 1020 C 1966.500 346.209, 1966.415 311.904, 1964.715 300 C 1956.141 239.958, 1931.318 190.381, 1889.845 150.465 C 1848.715 110.879, 1797.791 88.072, 1741.500 84.024 C 1724.697 82.816, 324.725 82.865, 307 84.074 M 860.459 659.250 C 860.196 659.938, 860.101 685.925, 860.249 717 L 860.517 773.500 860.758 716.333 C 860.947 671.718, 861.274 659.056, 862.250 658.662 C 863.229 658.267, 863.222 658.141, 862.219 658.079 C 861.514 658.036, 860.722 658.563, 860.459 659.250 M 1051.331 790.750 C 1146.938 790.891, 1303.088 790.891, 1398.331 790.750 C 1493.574 790.609, 1415.350 790.494, 1224.500 790.494 C 1033.650 790.494, 955.724 790.609, 1051.331 790.750 M 406 931.161 C 381.272 933.075, 358.353 943.215, 340.417 960.176 C 318.651 980.759, 307.520 1005.062, 306.274 1034.727 C 305.631 1050.028, 306.785 1059.013, 311.190 1073 C 316.580 1090.119, 325.956 1105.004, 339.374 1117.751 C 360.462 1137.781, 386.171 1148, 415.479 1148 C 440.050 1148, 462.450 1140.995, 481.996 1127.199 C 488.367 1122.702, 488.616 1122.371, 487.808 1119.500 C 485.653 1111.842, 479.958 1078.033, 478.829 1066.189 C 478.138 1058.935, 477.289 1053, 476.944 1053 C 476.599 1053, 475.751 1054.912, 475.061 1057.250 C 466.808 1085.180, 436.976 1104.163, 407.728 1100.095 C 377.722 1095.922, 356.366 1072.884, 354.337 1042.500 C 351.965 1006.990, 383.599 975.943, 419.699 978.349 C 443.874 979.960, 465.888 996.532, 474.224 1019.394 L 476.435 1025.458 477.126 1021.979 C 477.506 1020.066, 478.344 1012.425, 478.987 1005 C 479.631 997.575, 481.472 983.634, 483.079 974.019 C 484.685 964.404, 486 956.008, 486 955.359 C 486 953.921, 474.810 946.447, 465.986 941.993 C 458.414 938.171, 450.987 935.509, 442.197 933.468 C 436.690 932.189, 433.036 931.755, 418.500 930.653 C 416.850 930.527, 411.225 930.756, 406 931.161" stroke="none" fill="#cb99d4" fill-rule="evenodd"/><path d="M 297.923 0.389 C 297.691 0.610, 292.550 1.308, 286.500 1.941 C 258.319 4.886, 221.359 15.009, 191.500 27.961 C 186.790 30.004, 164.772 41.618, 160.567 44.277 C 159.504 44.950, 154.779 47.921, 150.067 50.881 C 130.008 63.479, 115.187 75.592, 94.981 95.902 C 60.139 130.922, 37.285 166.556, 20.099 212.654 C 10.275 239.004, 5.519 259.381, 2.047 290 L -0.051 308.500 0.234 1024.500 L 0.519 1740.500 3.171 1757 C 13.661 1822.277, 35.332 1872.529, 73.678 1920.500 C 84.192 1933.653, 105.042 1955.274, 117.500 1965.943 C 168.154 2009.325, 230.089 2037.310, 292.500 2045.017 C 297.450 2045.629, 304.237 2046.550, 307.582 2047.064 C 316.649 2048.459, 1726.562 2048.336, 1739.500 2046.940 C 1757.174 2045.031, 1781.143 2040.899, 1794.500 2037.458 C 1853.602 2022.231, 1908.145 1990.395, 1951.590 1945.768 C 1983.023 1913.479, 2005.073 1880.304, 2022.305 1839.373 C 2035.223 1808.691, 2045.032 1768.079, 2046.719 1738.290 C 2047.037 1732.667, 2047.681 1728.303, 2048.149 1728.592 C 2048.617 1728.881, 2048.968 1408.129, 2048.930 1015.809 C 2048.890 617.093, 2048.480 303.382, 2048 304.500 C 2047.367 305.972, 2047.122 305.128, 2047.070 301.301 C 2046.978 294.447, 2044.470 275.532, 2041.978 262.887 C 2022.810 165.639, 1961.479 83.075, 1874 36.752 C 1842.543 20.095, 1803.674 7.784, 1767.500 3.020 C 1762.550 2.368, 1757.375 1.540, 1756 1.181 C 1753.358 0.489, 298.649 -0.301, 297.923 0.389 M 298.500 56.122 C 277.093 58.168, 252.018 63.915, 231.360 71.510 C 207.597 80.247, 175.669 98.301, 156.596 113.787 C 146.453 122.022, 127.992 140.057, 119.014 150.500 C 84.916 190.164, 63.098 239.292, 55.285 294 C 53.585 305.905, 53.500 340.468, 53.500 1020 C 53.500 1701.727, 53.580 1734.034, 55.298 1745.500 C 60.230 1778.405, 70.920 1812.068, 84.796 1838.390 C 103.749 1874.343, 132.592 1908.379, 163.989 1931.844 C 204.917 1962.432, 245.666 1979.267, 298 1987.210 C 304.881 1988.254, 443.449 1988.500, 1025.500 1988.500 L 1744.500 1988.500 1757.500 1986.211 C 1786.811 1981.051, 1809.884 1973.939, 1832.500 1963.093 C 1853.891 1952.834, 1872.376 1941.389, 1890.500 1927.181 C 1900.277 1919.517, 1927.275 1892.199, 1935.152 1882 C 1965.610 1842.563, 1984.293 1798.981, 1992.168 1749 L 1994.453 1734.500 1994.776 1028.500 C 1995.006 526.320, 1994.785 318.747, 1994.012 309.500 C 1988.292 241.072, 1961.130 181.545, 1914.043 134.245 C 1872.280 92.294, 1823.109 67.590, 1760.804 57.257 C 1751.158 55.657, 1704.424 55.539, 1029 55.405 C 632.175 55.327, 303.450 55.649, 298.500 56.122 M 307 84.074 C 248.464 88.068, 193.319 113.884, 152 156.636 C 132.063 177.265, 119.169 195.535, 106.931 220.500 C 94.843 245.157, 87.723 268.495, 83.284 298 C 81.660 308.801, 81.535 351.846, 81.234 1006.500 C 81.014 1487.517, 81.241 1708.717, 81.969 1720.337 C 83.249 1740.764, 85.084 1753.504, 89.124 1770 C 110.317 1856.553, 177.949 1926.492, 264.500 1951.360 C 278.887 1955.493, 296.861 1958.600, 314.395 1959.983 C 332.300 1961.395, 1718.869 1961.373, 1735.500 1959.960 C 1817.259 1953.013, 1888.678 1908.494, 1931.221 1837.956 C 1948.205 1809.796, 1959.462 1776.868, 1964.709 1740 C 1966.401 1728.112, 1966.488 1692.849, 1966.494 1020 C 1966.500 346.209, 1966.415 311.904, 1964.715 300 C 1956.141 239.958, 1931.318 190.381, 1889.845 150.465 C 1848.715 110.879, 1797.791 88.072, 1741.500 84.024 C 1724.697 82.816, 324.725 82.865, 307 84.074 M 0.497 1017 C 0.497 1409.425, 0.611 1569.963, 0.750 1373.750 C 0.889 1177.538, 0.889 856.463, 0.750 660.250 C 0.611 464.038, 0.497 624.575, 0.497 1017 M 1461 441.576 C 1433.905 448.692, 1414 473.743, 1414 500.726 C 1414 509.040, 1416.789 520.796, 1420.613 528.602 C 1429.048 545.821, 1447.833 559.470, 1466.786 562.150 C 1496.423 566.341, 1524.628 547.472, 1533.608 517.448 C 1536.315 508.397, 1536.106 493.499, 1533.139 484.012 C 1530.252 474.780, 1528.408 471.126, 1522.863 463.656 C 1515.249 453.399, 1500.724 444.109, 1488.122 441.438 C 1479.718 439.657, 1468.082 439.716, 1461 441.576 M 1667.202 442.022 C 1656.128 444.923, 1648.543 449.429, 1639.486 458.486 C 1626.326 471.645, 1621.632 482.940, 1621.608 501.500 C 1621.585 518.961, 1626.648 531.807, 1638.309 543.871 C 1649.684 555.641, 1662.847 561.885, 1678 562.701 C 1696.345 563.689, 1711.159 557.905, 1724.532 544.532 C 1737.924 531.140, 1743.708 516.308, 1742.679 498 C 1741.761 481.679, 1736.565 470.302, 1724.615 458.453 C 1708.244 442.219, 1688.269 436.503, 1667.202 442.022 M 1592.591 633.526 C 1585.396 636.249, 1578.889 642.185, 1573.708 650.750 L 1570.533 656 1305.266 656 L 1040 656 1040 675.550 C 1040 690.435, 1039.663 695.744, 1038.589 697.800 C 1036.472 701.853, 1031.773 705.918, 1027.931 707.020 C 1023.241 708.365, 938.647 708.307, 933.781 706.956 C 928.807 705.574, 924.120 701.473, 921.880 696.541 C 920.321 693.110, 920.041 689.801, 920.022 674.627 L 920 656.754 893.250 657.300 C 865.846 657.860, 825.765 660.182, 811.500 662.037 C 768.275 667.656, 725.492 680.709, 688.398 699.596 C 637.317 725.605, 598.167 757.102, 560.493 802.500 C 528.130 841.497, 500.729 896.142, 488.976 945.125 L 486.667 954.750 479.583 950.003 C 464.372 939.810, 450.961 934.637, 431.561 931.479 C 429.394 931.127, 422.155 930.851, 415.474 930.867 C 385.909 930.937, 361.009 940.707, 340.163 960.417 C 318.666 980.742, 307.515 1005.194, 306.274 1034.727 C 305.631 1050.028, 306.785 1059.013, 311.190 1073 C 319.873 1100.575, 340.047 1123.765, 366.866 1136.999 C 391.746 1149.277, 422.562 1151.465, 450.546 1142.943 C 459.418 1140.241, 473.701 1133.101, 481.818 1127.310 C 485.293 1124.831, 488.279 1122.959, 488.455 1123.151 C 488.631 1123.343, 490.231 1128.675, 492.012 1135 C 509.262 1196.272, 544.122 1253.918, 592.102 1300.511 C 654.771 1361.368, 733.189 1398.094, 823 1408.647 C 840.711 1410.728, 881.167 1410.979, 898 1409.112 C 963.562 1401.840, 1020.669 1380.826, 1076 1343.612 C 1096.966 1329.511, 1112.836 1316.265, 1133.579 1295.551 C 1159.014 1270.153, 1174.262 1250.732, 1192.502 1220.500 C 1221.136 1173.042, 1237.704 1121.005, 1242.967 1062 C 1245.662 1031.793, 1242.786 992.557, 1235.364 958.260 C 1234.231 953.028, 1233.931 949.693, 1234.540 949.124 C 1235.068 948.631, 1247.875 945.222, 1263 941.549 C 1278.125 937.875, 1304.900 931.317, 1322.500 926.976 C 1351.796 919.750, 1415.462 904.193, 1457.500 893.989 C 1466.850 891.719, 1494.750 884.903, 1519.500 878.843 C 1544.250 872.782, 1568.315 866.986, 1572.977 865.961 L 1581.455 864.099 1587.956 867.299 C 1593.899 870.225, 1595.276 870.499, 1603.979 870.489 C 1616.064 870.475, 1621.582 868.219, 1629.267 860.152 C 1639.204 849.722, 1638.500 858.078, 1638.500 750.500 L 1638.500 656.500 1635.720 650.839 C 1632.382 644.042, 1626.726 638.696, 1619.120 635.151 C 1612.215 631.933, 1598.946 631.120, 1592.591 633.526 M 1758.500 642.012 C 1744.652 643.917, 1732.474 650.496, 1721.829 661.825 C 1714.160 669.985, 1710.593 676.362, 1707.978 686.585 C 1704.250 701.164, 1706.198 718.086, 1713.093 731.024 C 1720.029 744.037, 1735.488 756.919, 1749.325 761.216 C 1759.384 764.340, 1774.779 764.258, 1784 761.030 C 1802.499 754.555, 1813.436 744.932, 1822.369 727.269 C 1833.529 705.202, 1828.041 677.883, 1808.539 658.429 C 1799.742 649.653, 1793.912 646.289, 1783 643.693 C 1774.213 641.602, 1765.717 641.019, 1758.500 642.012 M 403.168 979.466 C 373.457 986.230, 352.395 1013.418, 354.337 1042.500 C 356.009 1067.549, 370.931 1088.041, 393.753 1096.632 C 422.746 1107.544, 456.377 1095.015, 470.331 1068.102 C 476.205 1056.771, 477.415 1051.790, 477.398 1039 C 477.384 1028.872, 477.053 1026.641, 474.622 1020.298 C 465.113 995.487, 443.754 979.524, 418.592 978.423 C 412.857 978.172, 407.162 978.557, 403.168 979.466" stroke="none" fill="#f5f0e8" fill-rule="evenodd"/><path d="M 1667.500 441.954 C 1659.072 444.174, 1654.880 445.997, 1655.583 447.135 C 1655.870 447.598, 1655.481 447.738, 1654.720 447.446 C 1652.833 446.722, 1642.574 454.441, 1636.636 461.053 C 1625.900 473.009, 1621.593 484.589, 1621.593 501.500 C 1621.593 518.976, 1626.660 531.819, 1638.309 543.871 C 1649.835 555.796, 1662.900 561.930, 1678.237 562.615 C 1696.927 563.450, 1711.182 557.882, 1724.532 544.532 C 1737.924 531.140, 1743.708 516.308, 1742.679 498 C 1741.761 481.679, 1736.565 470.302, 1724.615 458.453 C 1708.331 442.306, 1688.220 436.496, 1667.500 441.954" stroke="none" fill="#f3a14b" fill-rule="evenodd"/><path d="M 297.923 0.389 C 297.691 0.610, 292.550 1.308, 286.500 1.941 C 258.319 4.886, 221.359 15.009, 191.500 27.961 C 186.790 30.004, 164.772 41.618, 160.567 44.277 C 159.504 44.950, 154.779 47.921, 150.067 50.881 C 130.008 63.479, 115.187 75.592, 94.981 95.902 C 60.139 130.922, 37.285 166.556, 20.099 212.654 C 10.275 239.004, 5.519 259.381, 2.047 290 L -0.051 308.500 0.234 1024.500 L 0.519 1740.500 3.171 1757 C 13.661 1822.277, 35.332 1872.529, 73.678 1920.500 C 84.192 1933.653, 105.042 1955.274, 117.500 1965.943 C 168.154 2009.325, 230.089 2037.310, 292.500 2045.017 C 297.450 2045.629, 304.237 2046.550, 307.582 2047.064 C 316.649 2048.459, 1726.562 2048.336, 1739.500 2046.940 C 1757.174 2045.031, 1781.143 2040.899, 1794.500 2037.458 C 1853.602 2022.231, 1908.145 1990.395, 1951.590 1945.768 C 1983.023 1913.479, 2005.073 1880.304, 2022.305 1839.373 C 2035.223 1808.691, 2045.032 1768.079, 2046.719 1738.290 C 2047.037 1732.667, 2047.681 1728.303, 2048.149 1728.592 C 2048.617 1728.881, 2048.968 1408.129, 2048.930 1015.809 C 2048.890 617.093, 2048.480 303.382, 2048 304.500 C 2047.367 305.972, 2047.122 305.128, 2047.070 301.301 C 2046.978 294.447, 2044.470 275.532, 2041.978 262.887 C 2022.810 165.639, 1961.479 83.075, 1874 36.752 C 1842.543 20.095, 1803.674 7.784, 1767.500 3.020 C 1762.550 2.368, 1757.375 1.540, 1756 1.181 C 1753.358 0.489, 298.649 -0.301, 297.923 0.389 M 298.500 56.122 C 277.093 58.168, 252.018 63.915, 231.360 71.510 C 207.597 80.247, 175.669 98.301, 156.596 113.787 C 146.453 122.022, 127.992 140.057, 119.014 150.500 C 84.916 190.164, 63.098 239.292, 55.285 294 C 53.585 305.905, 53.500 340.468, 53.500 1020 C 53.500 1701.727, 53.580 1734.034, 55.298 1745.500 C 60.230 1778.405, 70.920 1812.068, 84.796 1838.390 C 103.749 1874.343, 132.592 1908.379, 163.989 1931.844 C 204.917 1962.432, 245.666 1979.267, 298 1987.210 C 304.881 1988.254, 443.449 1988.500, 1025.500 1988.500 L 1744.500 1988.500 1757.500 1986.211 C 1786.811 1981.051, 1809.884 1973.939, 1832.500 1963.093 C 1853.891 1952.834, 1872.376 1941.389, 1890.500 1927.181 C 1900.277 1919.517, 1927.275 1892.199, 1935.152 1882 C 1965.610 1842.563, 1984.293 1798.981, 1992.168 1749 L 1994.453 1734.500 1994.776 1028.500 C 1995.006 526.320, 1994.785 318.747, 1994.012 309.500 C 1988.292 241.072, 1961.130 181.545, 1914.043 134.245 C 1872.280 92.294, 1823.109 67.590, 1760.804 57.257 C 1751.158 55.657, 1704.424 55.539, 1029 55.405 C 632.175 55.327, 303.450 55.649, 298.500 56.122 M 307 84.074 C 248.464 88.068, 193.319 113.884, 152 156.636 C 132.063 177.265, 119.169 195.535, 106.931 220.500 C 94.843 245.157, 87.723 268.495, 83.284 298 C 81.660 308.801, 81.535 351.846, 81.234 1006.500 C 81.014 1487.517, 81.241 1708.717, 81.969 1720.337 C 83.249 1740.764, 85.084 1753.504, 89.124 1770 C 110.317 1856.553, 177.949 1926.492, 264.500 1951.360 C 278.887 1955.493, 296.861 1958.600, 314.395 1959.983 C 332.300 1961.395, 1718.869 1961.373, 1735.500 1959.960 C 1817.259 1953.013, 1888.678 1908.494, 1931.221 1837.956 C 1948.205 1809.796, 1959.462 1776.868, 1964.709 1740 C 1966.401 1728.112, 1966.488 1692.849, 1966.494 1020 C 1966.500 346.209, 1966.415 311.904, 1964.715 300 C 1956.141 239.958, 1931.318 190.381, 1889.845 150.465 C 1848.715 110.879, 1797.791 88.072, 1741.500 84.024 C 1724.697 82.816, 324.725 82.865, 307 84.074 M 0.497 1017 C 0.497 1409.425, 0.611 1569.963, 0.750 1373.750 C 0.889 1177.538, 0.889 856.463, 0.750 660.250 C 0.611 464.038, 0.497 624.575, 0.497 1017 M 1461 441.576 C 1433.905 448.692, 1414 473.743, 1414 500.726 C 1414 509.040, 1416.789 520.796, 1420.613 528.602 C 1429.048 545.821, 1447.833 559.470, 1466.786 562.150 C 1496.423 566.341, 1524.628 547.472, 1533.608 517.448 C 1536.315 508.397, 1536.106 493.499, 1533.139 484.012 C 1530.252 474.780, 1528.408 471.126, 1522.863 463.656 C 1515.249 453.399, 1500.724 444.109, 1488.122 441.438 C 1479.718 439.657, 1468.082 439.716, 1461 441.576 M 1667.202 442.022 C 1656.128 444.923, 1648.543 449.429, 1639.486 458.486 C 1626.326 471.645, 1621.632 482.940, 1621.608 501.500 C 1621.585 518.961, 1626.648 531.807, 1638.309 543.871 C 1649.684 555.641, 1662.847 561.885, 1678 562.701 C 1696.345 563.689, 1711.159 557.905, 1724.532 544.532 C 1737.924 531.140, 1743.708 516.308, 1742.679 498 C 1741.761 481.679, 1736.565 470.302, 1724.615 458.453 C 1708.244 442.219, 1688.269 436.503, 1667.202 442.022 M 1592.591 633.526 C 1585.396 636.249, 1578.889 642.185, 1573.708 650.750 L 1570.533 656 1305.266 656 L 1040 656 1040 675.550 C 1040 690.435, 1039.663 695.744, 1038.589 697.800 C 1036.472 701.853, 1031.773 705.918, 1027.931 707.020 C 1023.241 708.365, 938.647 708.307, 933.781 706.956 C 928.807 705.574, 924.120 701.473, 921.880 696.541 C 920.321 693.110, 920.041 689.801, 920.022 674.627 L 920 656.754 893.250 657.300 C 865.846 657.860, 825.765 660.182, 811.500 662.037 C 768.275 667.656, 725.492 680.709, 688.398 699.596 C 637.317 725.605, 598.167 757.102, 560.493 802.500 C 528.130 841.497, 500.729 896.142, 488.976 945.125 L 486.667 954.750 479.583 950.003 C 464.372 939.810, 450.961 934.637, 431.561 931.479 C 429.394 931.127, 422.155 930.851, 415.474 930.867 C 385.909 930.937, 361.009 940.707, 340.163 960.417 C 318.666 980.742, 307.515 1005.194, 306.274 1034.727 C 305.631 1050.028, 306.785 1059.013, 311.190 1073 C 319.873 1100.575, 340.047 1123.765, 366.866 1136.999 C 391.746 1149.277, 422.562 1151.465, 450.546 1142.943 C 459.418 1140.241, 473.701 1133.101, 481.818 1127.310 C 485.293 1124.831, 488.279 1122.959, 488.455 1123.151 C 488.631 1123.343, 490.231 1128.675, 492.012 1135 C 509.262 1196.272, 544.122 1253.918, 592.102 1300.511 C 654.771 1361.368, 733.189 1398.094, 823 1408.647 C 840.711 1410.728, 881.167 1410.979, 898 1409.112 C 963.562 1401.840, 1020.669 1380.826, 1076 1343.612 C 1096.966 1329.511, 1112.836 1316.265, 1133.579 1295.551 C 1159.014 1270.153, 1174.262 1250.732, 1192.502 1220.500 C 1221.136 1173.042, 1237.704 1121.005, 1242.967 1062 C 1245.662 1031.793, 1242.786 992.557, 1235.364 958.260 C 1234.231 953.028, 1233.931 949.693, 1234.540 949.124 C 1235.068 948.631, 1247.875 945.222, 1263 941.549 C 1278.125 937.875, 1304.900 931.317, 1322.500 926.976 C 1351.796 919.750, 1415.462 904.193, 1457.500 893.989 C 1466.850 891.719, 1494.750 884.903, 1519.500 878.843 C 1544.250 872.782, 1568.315 866.986, 1572.977 865.961 L 1581.455 864.099 1587.956 867.299 C 1593.899 870.225, 1595.276 870.499, 1603.979 870.489 C 1616.064 870.475, 1621.582 868.219, 1629.267 860.152 C 1639.204 849.722, 1638.500 858.078, 1638.500 750.500 L 1638.500 656.500 1635.720 650.839 C 1632.382 644.042, 1626.726 638.696, 1619.120 635.151 C 1612.215 631.933, 1598.946 631.120, 1592.591 633.526 M 1758.500 642.012 C 1744.652 643.917, 1732.474 650.496, 1721.829 661.825 C 1714.160 669.985, 1710.593 676.362, 1707.978 686.585 C 1704.250 701.164, 1706.198 718.086, 1713.093 731.024 C 1720.029 744.037, 1735.488 756.919, 1749.325 761.216 C 1759.384 764.340, 1774.779 764.258, 1784 761.030 C 1802.499 754.555, 1813.436 744.932, 1822.369 727.269 C 1833.529 705.202, 1828.041 677.883, 1808.539 658.429 C 1799.742 649.653, 1793.912 646.289, 1783 643.693 C 1774.213 641.602, 1765.717 641.019, 1758.500 642.012 M 403.168 979.466 C 373.457 986.230, 352.395 1013.418, 354.337 1042.500 C 356.009 1067.549, 370.931 1088.041, 393.753 1096.632 C 422.746 1107.544, 456.377 1095.015, 470.331 1068.102 C 476.205 1056.771, 477.415 1051.790, 477.398 1039 C 477.384 1028.872, 477.053 1026.641, 474.622 1020.298 C 465.113 995.487, 443.754 979.524, 418.592 978.423 C 412.857 978.172, 407.162 978.557, 403.168 979.466" stroke="none" fill="#f5f0e8" fill-rule="evenodd"/><path d="M 1595.929 633.367 C 1586.379 635.943, 1578.323 642.735, 1572.797 652.875 L 1571.093 656 1306.047 656 L 1041 656 1041 674.532 C 1041 694.292, 1040.329 697.876, 1035.702 702.831 C 1030.812 708.069, 1031.538 708, 981 708 C 930.175 708, 931.154 708.094, 925.158 702.633 C 920.836 698.696, 920.516 697.117, 920 677.187 L 919.500 657.874 891.756 657.966 C 876.497 658.016, 863.321 658.323, 862.476 658.648 C 861.113 659.170, 860.971 665.882, 861.220 717.869 L 861.500 776.500 864.360 780.715 C 866.199 783.426, 869.036 785.836, 872.306 787.465 L 877.393 790 1224.041 790 C 1552.916 790, 1570.771 790.090, 1572.267 791.750 C 1573.608 793.239, 1573.892 797.818, 1574.172 822.500 L 1574.500 851.500 1577.282 857.166 C 1579.438 861.556, 1581.015 863.329, 1584.282 865.040 C 1591.794 868.972, 1596.345 870.108, 1604.721 870.141 C 1611.359 870.167, 1613.968 869.704, 1618.271 867.734 C 1625.444 864.450, 1633.339 856.270, 1636.209 849.149 L 1638.485 843.500 1638.493 751.500 C 1638.500 665.399, 1638.384 659.168, 1636.696 654.329 C 1633.231 644.397, 1623.414 636.012, 1612.147 633.360 C 1605.307 631.750, 1601.921 631.752, 1595.929 633.367 M 1752.362 643.981 C 1734.936 648.550, 1718.523 661.764, 1711.892 676.563 C 1706.945 687.605, 1705.466 705.558, 1708.518 717.540 C 1712.164 731.856, 1721.689 744.634, 1735.700 754.005 C 1746.180 761.015, 1751.718 762.505, 1767 762.429 C 1778.584 762.372, 1780.073 762.138, 1787.315 759.246 C 1797.695 755.100, 1803.844 751.027, 1810.222 744.072 C 1816.780 736.920, 1821.800 728.601, 1824.713 720.058 C 1827.527 711.802, 1827.871 695.326, 1825.404 686.932 C 1821.714 674.379, 1813.551 662.389, 1802.841 653.794 C 1795.792 648.136, 1792.395 646.568, 1781.500 643.942 C 1771.532 641.540, 1761.625 641.553, 1752.362 643.981" stroke="none" fill="#ed8164" fill-rule="evenodd"/><path d="M 297.923 0.389 C 297.691 0.610, 292.550 1.308, 286.500 1.941 C 258.319 4.886, 221.359 15.009, 191.500 27.961 C 186.790 30.004, 164.772 41.618, 160.567 44.277 C 159.504 44.950, 154.779 47.921, 150.067 50.881 C 130.008 63.479, 115.187 75.592, 94.981 95.902 C 60.139 130.922, 37.285 166.556, 20.099 212.654 C 10.275 239.004, 5.519 259.381, 2.047 290 L -0.051 308.500 0.234 1024.500 L 0.519 1740.500 3.171 1757 C 13.661 1822.277, 35.332 1872.529, 73.678 1920.500 C 84.192 1933.653, 105.042 1955.274, 117.500 1965.943 C 168.154 2009.325, 230.089 2037.310, 292.500 2045.017 C 297.450 2045.629, 304.237 2046.550, 307.582 2047.064 C 316.649 2048.459, 1726.562 2048.336, 1739.500 2046.940 C 1757.174 2045.031, 1781.143 2040.899, 1794.500 2037.458 C 1853.602 2022.231, 1908.145 1990.395, 1951.590 1945.768 C 1983.023 1913.479, 2005.073 1880.304, 2022.305 1839.373 C 2035.223 1808.691, 2045.032 1768.079, 2046.719 1738.290 C 2047.037 1732.667, 2047.681 1728.303, 2048.149 1728.592 C 2048.617 1728.881, 2048.968 1408.129, 2048.930 1015.809 C 2048.890 617.093, 2048.480 303.382, 2048 304.500 C 2047.367 305.972, 2047.122 305.128, 2047.070 301.301 C 2046.978 294.447, 2044.470 275.532, 2041.978 262.887 C 2022.810 165.639, 1961.479 83.075, 1874 36.752 C 1842.543 20.095, 1803.674 7.784, 1767.500 3.020 C 1762.550 2.368, 1757.375 1.540, 1756 1.181 C 1753.358 0.489, 298.649 -0.301, 297.923 0.389 M 298.500 56.122 C 277.093 58.168, 252.018 63.915, 231.360 71.510 C 207.597 80.247, 175.669 98.301, 156.596 113.787 C 146.453 122.022, 127.992 140.057, 119.014 150.500 C 84.916 190.164, 63.098 239.292, 55.285 294 C 53.585 305.905, 53.500 340.468, 53.500 1020 C 53.500 1701.727, 53.580 1734.034, 55.298 1745.500 C 60.230 1778.405, 70.920 1812.068, 84.796 1838.390 C 103.749 1874.343, 132.592 1908.379, 163.989 1931.844 C 204.917 1962.432, 245.666 1979.267, 298 1987.210 C 304.881 1988.254, 443.449 1988.500, 1025.500 1988.500 L 1744.500 1988.500 1757.500 1986.211 C 1786.811 1981.051, 1809.884 1973.939, 1832.500 1963.093 C 1853.891 1952.834, 1872.376 1941.389, 1890.500 1927.181 C 1900.277 1919.517, 1927.275 1892.199, 1935.152 1882 C 1965.610 1842.563, 1984.293 1798.981, 1992.168 1749 L 1994.453 1734.500 1994.776 1028.500 C 1995.006 526.320, 1994.785 318.747, 1994.012 309.500 C 1988.292 241.072, 1961.130 181.545, 1914.043 134.245 C 1872.280 92.294, 1823.109 67.590, 1760.804 57.257 C 1751.158 55.657, 1704.424 55.539, 1029 55.405 C 632.175 55.327, 303.450 55.649, 298.500 56.122 M 307 84.074 C 248.464 88.068, 193.319 113.884, 152 156.636 C 132.063 177.265, 119.169 195.535, 106.931 220.500 C 94.843 245.157, 87.723 268.495, 83.284 298 C 81.660 308.801, 81.535 351.846, 81.234 1006.500 C 81.014 1487.517, 81.241 1708.717, 81.969 1720.337 C 83.249 1740.764, 85.084 1753.504, 89.124 1770 C 110.317 1856.553, 177.949 1926.492, 264.500 1951.360 C 278.887 1955.493, 296.861 1958.600, 314.395 1959.983 C 332.300 1961.395, 1718.869 1961.373, 1735.500 1959.960 C 1817.259 1953.013, 1888.678 1908.494, 1931.221 1837.956 C 1948.205 1809.796, 1959.462 1776.868, 1964.709 1740 C 1966.401 1728.112, 1966.488 1692.849, 1966.494 1020 C 1966.500 346.209, 1966.415 311.904, 1964.715 300 C 1956.141 239.958, 1931.318 190.381, 1889.845 150.465 C 1848.715 110.879, 1797.791 88.072, 1741.500 84.024 C 1724.697 82.816, 324.725 82.865, 307 84.074 M 0.497 1017 C 0.497 1409.425, 0.611 1569.963, 0.750 1373.750 C 0.889 1177.538, 0.889 856.463, 0.750 660.250 C 0.611 464.038, 0.497 624.575, 0.497 1017 M 1461 441.576 C 1433.905 448.692, 1414 473.743, 1414 500.726 C 1414 509.040, 1416.789 520.796, 1420.613 528.602 C 1429.048 545.821, 1447.833 559.470, 1466.786 562.150 C 1496.423 566.341, 1524.628 547.472, 1533.608 517.448 C 1536.315 508.397, 1536.106 493.499, 1533.139 484.012 C 1530.252 474.780, 1528.408 471.126, 1522.863 463.656 C 1515.249 453.399, 1500.724 444.109, 1488.122 441.438 C 1479.718 439.657, 1468.082 439.716, 1461 441.576 M 1667.202 442.022 C 1656.128 444.923, 1648.543 449.429, 1639.486 458.486 C 1626.326 471.645, 1621.632 482.940, 1621.608 501.500 C 1621.585 518.961, 1626.648 531.807, 1638.309 543.871 C 1649.684 555.641, 1662.847 561.885, 1678 562.701 C 1696.345 563.689, 1711.159 557.905, 1724.532 544.532 C 1737.924 531.140, 1743.708 516.308, 1742.679 498 C 1741.761 481.679, 1736.565 470.302, 1724.615 458.453 C 1708.244 442.219, 1688.269 436.503, 1667.202 442.022 M 1592.591 633.526 C 1585.396 636.249, 1578.889 642.185, 1573.708 650.750 L 1570.533 656 1305.266 656 L 1040 656 1040 675.550 C 1040 690.435, 1039.663 695.744, 1038.589 697.800 C 1036.472 701.853, 1031.773 705.918, 1027.931 707.020 C 1023.241 708.365, 938.647 708.307, 933.781 706.956 C 928.807 705.574, 924.120 701.473, 921.880 696.541 C 920.321 693.110, 920.041 689.801, 920.022 674.627 L 920 656.754 893.250 657.300 C 865.846 657.860, 825.765 660.182, 811.500 662.037 C 768.275 667.656, 725.492 680.709, 688.398 699.596 C 637.317 725.605, 598.167 757.102, 560.493 802.500 C 528.130 841.497, 500.729 896.142, 488.976 945.125 L 486.667 954.750 479.583 950.003 C 464.372 939.810, 450.961 934.637, 431.561 931.479 C 429.394 931.127, 422.155 930.851, 415.474 930.867 C 385.909 930.937, 361.009 940.707, 340.163 960.417 C 318.666 980.742, 307.515 1005.194, 306.274 1034.727 C 305.631 1050.028, 306.785 1059.013, 311.190 1073 C 319.873 1100.575, 340.047 1123.765, 366.866 1136.999 C 391.746 1149.277, 422.562 1151.465, 450.546 1142.943 C 459.418 1140.241, 473.701 1133.101, 481.818 1127.310 C 485.293 1124.831, 488.279 1122.959, 488.455 1123.151 C 488.631 1123.343, 490.231 1128.675, 492.012 1135 C 509.262 1196.272, 544.122 1253.918, 592.102 1300.511 C 654.771 1361.368, 733.189 1398.094, 823 1408.647 C 840.711 1410.728, 881.167 1410.979, 898 1409.112 C 963.562 1401.840, 1020.669 1380.826, 1076 1343.612 C 1096.966 1329.511, 1112.836 1316.265, 1133.579 1295.551 C 1159.014 1270.153, 1174.262 1250.732, 1192.502 1220.500 C 1221.136 1173.042, 1237.704 1121.005, 1242.967 1062 C 1245.662 1031.793, 1242.786 992.557, 1235.364 958.260 C 1234.231 953.028, 1233.931 949.693, 1234.540 949.124 C 1235.068 948.631, 1247.875 945.222, 1263 941.549 C 1278.125 937.875, 1304.900 931.317, 1322.500 926.976 C 1351.796 919.750, 1415.462 904.193, 1457.500 893.989 C 1466.850 891.719, 1494.750 884.903, 1519.500 878.843 C 1544.250 872.782, 1568.315 866.986, 1572.977 865.961 L 1581.455 864.099 1587.956 867.299 C 1593.899 870.225, 1595.276 870.499, 1603.979 870.489 C 1616.064 870.475, 1621.582 868.219, 1629.267 860.152 C 1639.204 849.722, 1638.500 858.078, 1638.500 750.500 L 1638.500 656.500 1635.720 650.839 C 1632.382 644.042, 1626.726 638.696, 1619.120 635.151 C 1612.215 631.933, 1598.946 631.120, 1592.591 633.526 M 1758.500 642.012 C 1744.652 643.917, 1732.474 650.496, 1721.829 661.825 C 1714.160 669.985, 1710.593 676.362, 1707.978 686.585 C 1704.250 701.164, 1706.198 718.086, 1713.093 731.024 C 1720.029 744.037, 1735.488 756.919, 1749.325 761.216 C 1759.384 764.340, 1774.779 764.258, 1784 761.030 C 1802.499 754.555, 1813.436 744.932, 1822.369 727.269 C 1833.529 705.202, 1828.041 677.883, 1808.539 658.429 C 1799.742 649.653, 1793.912 646.289, 1783 643.693 C 1774.213 641.602, 1765.717 641.019, 1758.500 642.012 M 403.168 979.466 C 373.457 986.230, 352.395 1013.418, 354.337 1042.500 C 356.009 1067.549, 370.931 1088.041, 393.753 1096.632 C 422.746 1107.544, 456.377 1095.015, 470.331 1068.102 C 476.205 1056.771, 477.415 1051.790, 477.398 1039 C 477.384 1028.872, 477.053 1026.641, 474.622 1020.298 C 465.113 995.487, 443.754 979.524, 418.592 978.423 C 412.857 978.172, 407.162 978.557, 403.168 979.466" stroke="none" fill="#f5f0e8" fill-rule="evenodd"/><path d="M 1466 440.691 C 1460.816 441.559, 1453.242 444.381, 1445.740 448.241 C 1432.475 455.066, 1420.922 469.333, 1416.381 484.500 C 1413.959 492.587, 1413.974 509.240, 1416.410 517.500 C 1422.272 537.378, 1438.389 553.842, 1458.218 560.206 C 1466.508 562.867, 1481.997 563.039, 1490.500 560.566 C 1516.771 552.924, 1535.346 528.463, 1535.354 501.500 C 1535.359 483.985, 1529.914 470.827, 1517.543 458.459 C 1508.286 449.205, 1498.831 443.867, 1487.500 441.498 C 1480.882 440.114, 1471.538 439.764, 1466 440.691 M 843.500 659.657 C 789.420 662.169, 737.056 675.435, 691.814 698.085 C 650.308 718.865, 621.009 739.900, 588.930 771.947 C 579.267 781.601, 567.636 794, 563.083 799.500 C 507.779 866.315, 477.669 949.829, 477.817 1036 C 477.843 1050.971, 478.421 1064.036, 479.411 1072 C 486.366 1127.978, 502.783 1176.410, 530.595 1223 C 560.823 1273.638, 605.683 1319.118, 657 1351.154 C 709.374 1383.849, 765.518 1402.703, 829.500 1409.081 C 846.986 1410.825, 882.579 1410.562, 900.500 1408.556 C 974.999 1400.221, 1042.299 1371.979, 1103 1323.580 C 1118.496 1311.224, 1148.690 1281.179, 1160.362 1266.500 C 1201.243 1215.088, 1226.399 1160.954, 1237.503 1100.500 C 1242.208 1074.883, 1243.352 1062.199, 1243.367 1035.500 C 1243.381 1008.359, 1241.544 989.669, 1236.319 963.792 C 1234.908 956.803, 1234.003 950.436, 1234.307 949.642 C 1234.638 948.779, 1238.608 947.321, 1244.180 946.016 C 1249.306 944.815, 1294.450 933.788, 1344.500 921.511 C 1481.688 887.861, 1557.257 869.394, 1569.647 866.492 L 1580.794 863.881 1577.647 857.782 L 1574.500 851.684 1574.171 822.399 C 1573.923 800.314, 1573.531 792.856, 1572.576 792.063 C 1571.696 791.333, 1464.860 790.933, 1223.404 790.756 L 875.500 790.500 871.264 788.074 C 866.580 785.391, 862.474 780.141, 860.977 774.920 C 860.393 772.883, 860 748.884, 860 715.257 L 860 659 854.750 659.189 C 851.862 659.293, 846.800 659.504, 843.500 659.657 M 838.902 934.955 C 821.278 938.673, 802.463 948.312, 789.483 960.272 C 744.508 1001.714, 742.665 1071.041, 785.410 1113.544 C 816.657 1144.614, 861.888 1153.476, 902.278 1136.442 C 935.212 1122.552, 959.864 1091.446, 965.506 1056.663 C 971.110 1022.110, 960.073 987.561, 935.861 963.864 C 920.048 948.387, 902.454 939.032, 880.792 934.583 C 870.242 932.416, 850.087 932.595, 838.902 934.955" stroke="none" fill="#52a271" fill-rule="evenodd"/></svg>